<svg xmlns="http://www.w3.org/2000/svg" viewBox="0 0 64 64" role="img" aria-label="Earth Online favicon">
  <defs>
    <linearGradient id="ocean" x1="0" y1="0" x2="1" y2="1">
      <stop offset="0%" stop-color="#7fd4e0" />
      <stop offset="100%" stop-color="#1e88a8" />
    </linearGradient>
  </defs>
  <rect width="64" height="64" rx="14" fill="#eef6fb" />
  <circle cx="32" cy="32" r="20" fill="url(#ocean)" />
  <path d="M20 30c5-7 10-10 17-10 3 0 7 1 10 3-2 4-5 8-9 10-3 2-7 3-11 3-3 0-5-1-7-1Z" fill="#f7fbfe" opacity=".95" />
  <path d="M24 40c4 2 7 3 11 3 5 0 9-1 13-4-1 5-6 10-14 10-5 0-8-2-10-4Z" fill="#d48b2f" opacity=".9" />
  <circle cx="47" cy="18" r="4" fill="#ffce6b" />
</svg>